<?xml version="1.0" encoding="UTF-8"?>
<svg xmlns="http://www.w3.org/2000/svg" width="812.46" height="639.7" viewBox="229.27 -2.35 812.46 639.7" style="background-color:transparent">
  <!-- Created using SVG Map Generator: dojo.amcharts.com/svg-map-generator -->
  <style>
    .land { fill: #dbeafe; stroke: #93c5fd; stroke-width: 0.5; }
  </style>
  <g id="polygons">
    <path d="M880.717,336.521L884.735,338.879L890.899,341.006L893.169,344.93L896.297,346.88L898.533,346.5L903.78,348.236L905.773,350.206L906.343,353.074L911.722,352.412L913.508,357.634L912.439,362.195L914.464,363.735L916.564,362.638L918.612,367.631L920.474,370.298L925.065,371.31L927.401,370.957L927.576,367.032L930.014,367.015L934.27,371.286L934.735,375.497L927.657,373.368L929.162,380.481L926.997,380.917L925.968,382.971L926.466,385.624L932.447,390.914L935.63,391.31L936.854,394.856L935.052,397.119L936.739,398.431L941.2,398.369L942.151,397.113L945.984,399.352L949.896,400.125L950.673,405.585L949.767,408.97L947.539,410.25L949.669,413.198L948.553,415.463L944.113,414.216L944.211,418.864L945.453,421.72L943.944,423.637L944.306,425.651L942.114,427.836L941.688,429.723L937.932,431.828L934.254,428.474L929.82,428.987L927.868,428.343L924.981,425.353L921.122,422.446L918.836,423.842L920.066,426.027L916.747,428.589L913.575,427.382L915.63,421.704L913.431,420.152L910.453,419.812L910.495,422.646L906.974,424.751L904.867,424.02L903.213,421.459L901.802,417.072L898.148,413.834L897.861,411.373L894.67,408.35L895.284,405.049L897.826,403.266L893.834,399.95L890.96,398.963L889.442,399.943L884.918,395.296L884.477,393.54L885.305,390.378L887.365,388.45L890.769,388.168L889.046,381.468L886.355,375.572L883.506,375.452L882.067,376.847L878.843,374.013L875.65,373.753L874.105,368.915L869.835,367.469L868.309,364.752L872.005,364.745L873.868,363.844L873.797,360.342L872.756,359.387L873.16,356.158L876.308,355.655L873.198,350.286L873.056,347.539L875.881,346.82L878.663,348.089L879.487,349.83L883.297,353.429L886.767,351.684L888.866,348.608L886.218,346.028L884.746,342.748L879.956,341.194L878.412,337.635Z" class="land" id="CN-AH" title="Anhui"/>
    <path d="M853.394,246.576L850.373,246.23L847.863,249.427L845.598,247.556L841.742,246.921L838.977,248.349L837.354,246.758L834.002,245.789L832.596,241.131L830.792,239.07L832.496,237.401L835.632,237.023L836.462,234.824L832.397,231.533L831.479,229.788L833.104,228.426L835.886,228.466L836.535,225.369L839.697,225.31L838.155,221.973L841.335,221.951L848.17,227.058L852.94,227.762L852.528,230.589L853.761,232.787L857.201,235.455L855.599,238.05L850.016,239.038L850.96,241.292L853.287,242.231L854.132,245.019Z" class="land" id="CN-BJ" title="Beijing"/>
    <path d="M778.804,380.63L785.431,384.542L787.762,385.084L792.206,388.041L792.863,389.593L797.126,389.331L807.263,395.467L809.331,399.918L809.427,406.218L806.262,404.627L804.675,405.336L803.412,407.768L799.76,410.542L796.782,411.109L795.865,409.023L793.672,409.515L792.272,411.778L789.836,410.128L786.51,413.736L789.794,416.312L790.885,423.189L794.122,426.404L797.95,428.163L797.958,430.412L800.325,433.001L805.185,436.79L806.852,438.155L806.406,441.217L808.764,448.042L806.157,454.21L802.465,453.545L801.598,449.271L799.771,451.181L798.097,447.443L793.951,444.88L794.097,442.793L792.183,439.542L787.916,437.464L785.198,439.7L783.716,436.486L777.616,435.648L777.804,438.826L778.825,441.615L776.974,443.142L774.762,440.995L771.665,442.338L771.588,446.382L766.688,444.916L765.185,447.551L764.403,447.06L761.091,440.899L756.366,440.786L754.689,440.084L752.68,437.13L751.441,433.757L747.868,433.714L746.99,431.621L744.211,429.178L745.394,426.598L747.399,425.676L749.24,423.447L747.792,420.059L744.871,417.672L747.316,416.163L747.918,412.935L753.183,415.018L755.266,417.428L759.53,415.256L763.653,420.286L767.657,420.153L769.876,416.701L770.813,411.806L771.969,409.197L770.163,407.296L770.977,405.534L776.53,406.132L776.722,402.968L778.439,396.572L781.382,388.793L776.327,385.004L778.513,383.201Z" class="land" id="CN-CQ" title="Chongqing"/>
    <path d="M949.925,536.784L947.368,535.136L943.935,528.289L942.564,523.257L939.441,519.971L939.499,517.573L936.609,518.085L932.566,515.324L929.587,514.172L927.736,514.397L924.51,512.887L922.914,507.849L924.776,505.81L923.868,503.291L923.815,499.174L925.293,497.594L924.178,496.064L927.256,494.131L928.427,491.477L926.37,488.611L929.034,484.983L927.117,483.217L925.962,478.216L927.472,475.553L932.241,473.527L933.21,470.335L929.122,463.491L931.613,462.362L935.049,457.34L939.122,460.709L940.28,458.099L943.776,456.126L946.89,455.372L947.158,451.883L951.262,451.514L953.54,454.954L952.668,456.17L957.063,462.333L958.44,466.874L959.869,466.285L963.753,467.655L966.338,463.371L968.695,464.527L970.425,467.497L973.843,469.815L975.401,468.417L978.808,467.472L980.437,468.095L982.106,470.925L983.107,472.912L980.651,473.316L981.149,476.931L979.394,476.588L978.794,478.52L980.951,480.33L978.405,482.112L976.217,480.659L973.476,480.39L978.368,486.735L974.349,492.281L977.725,493.471L976.862,495.399L978.173,503.39L974.336,501.896L971.957,504.592L975.767,506.842L974.988,508.328L970.144,507.611L968.779,510.149L971.29,512.015L968.263,514.444L969.212,515.856L968.453,518.844L964.776,518.158L961.375,520.303L961.59,524.794L959.166,526.905L959.116,529.219L955.98,529.602L955.622,531.811L950.714,534.788Z" class="land" id="CN-FJ" title="Fujian"/>
    <path d="M909.19,556.306L906.527,557.023L904.352,557.902L901.287,552.889L899.256,558.432L900.623,560.418L899.902,564.91L898.23,566.381L895.587,567.031L893.903,564.91L891.925,568.837L889.552,567.154L887.467,570.452L884.387,569.341L884.429,570.986L882.419,571.615L879.863,569.831L875.222,572.412L872.828,574.67L870.446,574.156L868.257,575.427L865.208,575.922L862.526,577.366L860.732,577.145L859.172,580.215L856,580.849L856.733,583.411L853.596,585.365L853.774,586.884L856.833,587.62L860.213,593.836L859.27,596.533L857.468,597.808L854.845,598.091L852.485,597.154L850.52,593.576L847.616,591.011L847.792,589.667L845.538,586.158L846.068,580.372L845.67,575.927L844.502,573.978L846.484,572.418L846.919,568.383L850.942,568.423L852.199,566.421L851.901,563.152L853.96,563.516L856.768,560.823L855.967,558.125L856.326,555.607L860.427,554.33L862.51,552.584L864.098,549.998L864.654,547.353L862.576,542.824L863.234,536.569L865.129,536.326L864.903,533.151L867.327,533.244L867.52,530.797L866.736,526.046L869.017,523.399L865.859,518.419L866.848,516.444L868.407,513.254L867.634,511.365L868.692,508.804L874.822,509.33L876.047,511.53L878.909,513.596L880.973,512.987L879.397,508.866L877.063,505.665L879.346,505.423L881.898,502.359L885.753,505.147L888.011,506.026L893.218,503.41L894.763,505.121L898.039,506.44L900.22,505.95L902.017,504.116L905.921,507.309L905.221,510.313L901.922,512.591L901.822,516.297L899.761,517.66L902.889,519.208L904.434,521.039L908.673,518.739L910.776,519.706L911.522,518.076L914.025,517.836L916.234,516.183L919.154,516.096L921.155,518.581L923.72,520.069L925.408,519.617L923.424,516.328L924.51,512.887L927.736,514.397L929.587,514.172L932.566,515.324L936.609,518.085L939.499,517.573L939.441,519.971L942.564,523.257L943.935,528.289L947.368,535.136L949.925,536.784L947.956,536.277L945.613,537.962L945.687,540.187L944.436,541.814L943.621,545.034L942.005,545.831L942.204,549.179L938.909,548.824L937.13,550.99L934.95,551.053L932.616,552.756L931.326,550.854L929.379,550.394L928.009,552.484L926.428,551.918L920.826,551.883L918.99,555.438L916.764,555.173L915.345,551.798L912.969,554.441Z" class="land" id="CN-GD" title="Guangdong"/>
    <path d="M550.571,189.715L567.19,209.685L565.225,213.288L572.71,219.803L579.023,223.073L580.04,224.469L580.385,230.081L585.905,229.777L587.737,225.978L591.475,223.967L597.153,224.253L598.178,222.741L604.469,223.634L607.415,226.537L608.384,228.72L606.531,232.388L606.084,235.72L602.885,238.389L601.672,241.777L606.098,241.598L610.588,244.231L614.34,245.178L616.404,248.23L619.739,250.396L624.773,250.417L626.709,255.45L629.936,258.359L632.265,258.402L635.52,261.509L640.454,263.693L642.752,263.641L645.703,259.448L640.585,255.742L645.725,254.506L648.881,252.998L651.529,254.305L657.73,255.741L661.367,251.338L667.513,249.304L671.436,250.044L671.655,252.217L675.181,255.908L675.694,258.642L673.957,259.551L673.264,263.997L668.033,268.29L671.516,272.849L669.272,274.017L671.463,278.416L675.601,279.532L680.026,283.045L685.311,286.366L686.657,286L692.377,286.361L692.174,288.797L693.815,290.243L696.215,289.782L699.071,292.914L702.288,293.978L703.16,295.767L705.83,297.515L704.415,298.928L710.89,306.55L712.24,309.196L710.381,311.577L711.194,313.829L714.504,316.858L716.646,316.521L719.843,319.672L723.428,320.452L726.24,322.091L730.153,325.735L731.438,323.492L728.598,317.417L729.791,316.503L733.957,317.056L735.018,315.364L732.96,309.694L731.03,307.69L726,306.53L724.979,303.214L723.512,301.689L723.518,298.676L724.959,297.048L723.08,294.811L724.754,290.937L728.392,291.748L730.31,291.058L732.349,292.264L733.861,295.275L736.485,295.452L737.803,296.878L743.443,298.098L744.839,299.984L748.348,301.705L751.243,301.795L757.73,305.174L757.452,307.121L759.128,309.364L759.409,312.806L757.586,313.95L759.385,318.285L761.366,319.988L762.417,323.796L761.025,324.826L756.269,324.375L753.511,325.597L750.595,324.505L748.977,325.566L752.912,330.787L749.146,331.595L745.52,331.143L744.451,332.135L739.102,328.278L733.708,328.414L733.718,331.058L735.575,333.338L733.141,337.608L737.458,339.254L740.271,341.356L739.734,345.567L738.598,346.223L738.562,350.05L739.919,350.919L740.258,355.043L737.056,356.359L733.356,355.234L732.283,357.318L732.845,361.557L734.757,361.957L736.077,366.387L732.563,368.467L730.346,367.936L728.791,368.576L730.638,371.05L726.375,373.69L724.998,372.727L718.887,372.412L713.082,369.377L712.281,367.373L712.709,364.298L709.564,359.167L704.721,353.821L700.777,354.322L694.139,352.784L690.872,351.571L688.253,344.916L685.277,342.824L682.23,343.313L678.696,346.513L678.734,348.635L675.887,349.02L679.871,355.05L682.793,357.879L679.83,358.691L678.317,361.434L675.718,364.307L673.43,361.653L674.944,358.219L671.974,356.359L670.09,357.215L668.589,354.099L663.393,353.922L661.267,351.037L658.508,349.908L653.769,344.883L654.632,341.262L660.379,342.708L661.565,343.639L666.279,344.812L668.625,346.744L671.571,346.199L672.302,342.937L673.641,341.637L672.397,338.902L669.968,338.285L664.955,335.371L667.62,334.668L666.895,332.175L669.257,329.708L671.236,328.942L671.772,325.684L669.477,323.08L671.334,322.197L672.148,319.75L675.076,320.43L675.084,318.762L673.044,315.451L674.091,314.365L676.653,314.833L674.865,309.919L675.307,307.213L672.04,305.644L668.787,300.721L667.966,297.981L662.812,294.205L663.643,290.734L656.548,286.091L653.404,285.161L653.723,283.367L650.093,281.585L649.335,284.189L637.282,276.672L629.562,273.795L628.162,271.195L623.921,269.884L621.446,267.41L619.753,268.25L620.543,270.586L613.745,267.768L609.381,264.721L607.459,262.687L597.395,256.071L594.885,258.796L591.444,257.07L588.567,261.269L587.153,260.152L575.637,254.578L570.79,253.928L571.734,259.769L573.934,264.983L574.94,269.541L572.901,272.142L570.341,273.84L567.411,273.84L563.486,271.804L555.666,272.142L551.285,270.279L545.03,270.11L540.366,270.617L534.661,264.537L528.561,265.379L525.133,262.687L519.721,263.527L516.416,260.669L513.245,259.327L504.975,256.84L505.964,255.611L512.12,254.498L510.38,249.351L508.857,247.685L505.332,241.71L506.235,237.673L503.841,230.564L510.316,231.028L513.564,228.486L514.38,223.753L515.89,219.922L519.963,214.484L522.281,210.344L527.031,207.522L533.085,206.169L535.397,206.753L539.262,205.456L536.234,192.799L539.285,190.695L543.517,190.24L547.385,190.783Z" class="land" id="CN-GS" title="Gansu"/>
    <path d="M823.007,492.955L825.328,492.66L828.69,495.005L828.924,490.852L831.52,490.438L831.787,492.706L834.555,493.087L836.233,491.777L838.743,487.419L841.359,488.962L844.608,487.666L849.278,488.92L849.075,493.407L853.686,497.685L851.884,498.712L852.876,500.704L852.922,503.646L850.606,506.54L849.296,510.794L850.574,513.127L853.754,509.073L856.489,509.884L858.389,515.347L858.293,517.698L860.326,518.274L861.875,515.614L866.848,516.444L865.859,518.419L869.017,523.399L866.736,526.046L867.52,530.797L867.327,533.244L864.903,533.151L865.129,536.326L863.234,536.569L862.576,542.824L864.654,547.353L864.098,549.998L862.51,552.584L860.427,554.33L856.326,555.607L855.967,558.125L856.768,560.823L853.96,563.516L851.901,563.152L852.199,566.421L850.942,568.423L846.919,568.383L846.484,572.418L844.502,573.978L841.87,573.951L840.327,576.002L836.051,577.038L835.705,574.967L833.684,573.178L826.155,572.251L825.164,574.172L823.209,573.461L817.215,574.581L815.342,572.483L810.51,573.659L809.342,572.29L805.627,571.53L803.022,569.662L802.206,567.444L798.281,566.686L796.352,564.462L795.393,561.18L792.755,558.065L792.963,555.289L794.909,555.483L794.698,551.382L791.602,549.261L786.985,550.431L785.3,548.228L782.338,548.192L780.565,549.406L777.982,546.906L775.497,546.734L774.546,544.538L774.136,543.559L777.673,538.636L780.201,539.108L782.258,537.659L782.074,533.022L779.851,529.31L778.03,527.49L775.979,529.324L770.607,529.424L766.148,526.378L762.392,521.817L760.919,522.416L757.954,521.48L755.924,522.401L753.005,517.992L753.445,516.546L756.907,518.559L758.602,516.352L760.819,515.393L760.936,513.183L762.685,511.748L766.195,512.878L767.946,515.171L772.913,517.057L776.656,517.228L778.189,515.885L777.048,512.36L779.304,512.07L783.144,510.036L783.888,508.559L787.364,508.27L788.608,507.284L787.432,503.78L790.994,501.554L794.513,504.529L796.065,507.785L798.528,505.937L799.455,508.072L802.128,509.475L805.693,508.047L805.358,503.7L807.553,502.032L809.375,503.706L813.089,502.234L816.793,501.571L818.474,502.234L818.08,498.332L820.617,498.547Z" class="land" id="CN-GX" title="Guangxi Zhuang"/>
    <path d="M765.185,447.551L766.688,444.916L771.588,446.382L771.665,442.338L774.762,440.995L776.974,443.142L778.825,441.615L777.804,438.826L777.616,435.648L783.716,436.486L785.198,439.7L787.916,437.464L792.183,439.542L794.097,442.793L793.951,444.88L798.097,447.443L799.771,451.181L801.598,449.271L802.465,453.545L806.157,454.21L808.764,448.042L809.611,451.405L811.493,452.279L811.238,456.146L812.935,460.176L814.737,461.853L815.809,464.828L812.608,467.126L811.125,470.046L809.112,471.425L811.415,473.661L813.718,473.996L816.705,472.362L818.881,473.99L820.095,476.273L818.383,481.539L819.694,483.729L818.537,487.532L821.455,489.149L823.007,492.955L820.617,498.547L818.08,498.332L818.474,502.234L816.793,501.571L813.089,502.234L809.375,503.706L807.553,502.032L805.358,503.7L805.693,508.047L802.128,509.475L799.455,508.072L798.528,505.937L796.065,507.785L794.513,504.529L790.994,501.554L787.432,503.78L788.608,507.284L787.364,508.27L783.888,508.559L783.144,510.036L779.304,512.07L777.048,512.36L778.189,515.885L776.656,517.228L772.913,517.057L767.946,515.171L766.195,512.878L762.685,511.748L760.936,513.183L760.819,515.393L758.602,516.352L756.907,518.559L753.445,516.546L753.31,514.866L755.129,511.753L754.732,507.761L752.625,505.101L748.999,502.95L746.904,500.693L747.814,491.828L747.498,488.956L749.094,486.703L745.281,482.939L739.666,481.795L738.39,484.113L735.348,483.749L732.535,478.843L733.055,476.202L730.139,473.203L732.958,469.744L733.332,467.295L738.772,469.828L739.642,466.844L744.174,469.704L746.998,468.928L748.012,470.035L752.96,465.921L752.765,462.483L755.203,461.251L757.951,463.358L759.166,462.451L765.939,461.591L767.755,460.36L766.861,457.626L763.424,454.148L759.612,454.875L759.122,452.683L757.092,451.092L755.107,451.432L754.045,448.322L754.64,446.376L757.607,446.247L758.086,443.467L760.733,445.705Z" class="land" id="CN-GZ" title="Guizhou"/>
    <path d="M831.06,305.345L835.3,305.464L836.553,306.929L841.841,307.804L845.293,309.694L849.528,309.397L851.645,310.559L852.424,308.039L856.2,310.299L857.847,308.801L858.385,311.632L857.983,315.139L863.713,311.688L865.65,312.42L863.236,316.601L860.993,316.793L860.347,321.143L856.299,323.214L854.939,326.831L857.253,330.461L859.892,329.806L865.878,333.701L868.789,337.644L873.194,337.915L876.914,337.142L878.412,337.635L879.956,341.194L884.746,342.748L886.218,346.028L888.866,348.608L886.767,351.684L883.297,353.429L879.487,349.83L878.663,348.089L875.881,346.82L873.056,347.539L873.198,350.286L876.308,355.655L873.16,356.158L872.756,359.387L873.797,360.342L873.868,363.844L872.005,364.745L868.309,364.752L869.835,367.469L874.105,368.915L875.65,373.753L878.843,374.013L882.067,376.847L883.506,375.452L886.355,375.572L889.046,381.468L890.769,388.168L887.365,388.45L885.305,390.378L884.477,393.54L884.918,395.296L882.593,394.936L882.081,392.555L876.658,394.256L872.863,391.912L871.112,388.698L867.043,388.987L864.061,387.35L862.254,388.853L859.831,387.225L856,379.934L853.677,377.932L851.153,379.482L847.159,376.675L846.369,377.579L842.26,377.211L840.969,378.166L837.48,377.134L834.559,378.517L829.815,375.864L827.141,375.296L824.075,373.461L821.932,373.646L817.767,369.391L815.534,368.381L814.477,365.538L809.481,361.597L809.706,360.119L808.047,355.885L804.886,354.059L803.339,351.751L800.51,350.701L800.97,348.987L795.807,343.667L796.144,342.04L793.136,338.918L792.879,337.182L797.383,337.37L804.123,333.781L808.861,332.749L809.484,330.172L811.261,328.69L814.732,328.833L813.414,324.892L817.802,326.071L826.311,325.472L827.108,323.414L830.672,322.291L832.905,320.381L832.249,315.174L833.323,314.828L831.449,309.634Z" class="land" id="CN-HA" title="Henan"/>
    <path d="M797.126,389.331L795.739,382.574L792.785,378.984L793.025,373.664L797.34,373.671L799.175,374.505L801.1,373.655L799.551,369.753L797.505,368.587L793.427,367.954L792.93,365.01L787.259,363.52L787.83,362.095L792.831,361.777L798.948,363.391L807.649,363.54L809.481,361.597L814.477,365.538L815.534,368.381L817.767,369.391L821.932,373.646L824.075,373.461L827.141,375.296L829.815,375.864L834.559,378.517L837.48,377.134L840.969,378.166L842.26,377.211L846.369,377.579L847.159,376.675L851.153,379.482L853.677,377.932L856,379.934L859.831,387.225L862.254,388.853L864.061,387.35L867.043,388.987L871.112,388.698L872.863,391.912L876.658,394.256L882.081,392.555L882.593,394.936L884.918,395.296L889.442,399.943L890.96,398.963L893.834,399.95L897.826,403.266L895.284,405.049L894.67,408.35L897.861,411.373L898.148,413.834L901.802,417.072L903.213,421.459L904.867,424.02L902.306,425.84L897.867,423.451L895.448,423.711L895.371,425.522L893.256,427.623L887.961,429.321L887.904,431.636L885.23,431.761L883.18,433.088L879.379,432.557L879.689,434.681L877.098,435.168L876.109,438.137L872.95,437.866L869.884,434.214L871.155,430.825L868.694,426.618L864.261,426.233L861.937,430.949L858.92,430.336L856.498,424.46L854.455,428.163L850.745,427.465L850.023,429.209L844.786,426.585L842.407,423.757L838.79,422.264L833.51,422.309L830.767,420.046L825.852,419.61L822.974,418.661L819.833,419.75L820.311,422.382L823.027,424.886L819.634,427.438L815.059,424.615L810.187,425.238L810.346,426.433L807.034,427.711L805.785,431.232L806.13,433.701L805.185,436.79L800.325,433.001L797.958,430.412L797.95,428.163L794.122,426.404L790.885,423.189L789.794,416.312L786.51,413.736L789.836,410.128L792.272,411.778L793.672,409.515L795.865,409.023L796.782,411.109L799.76,410.542L803.412,407.768L804.675,405.336L806.262,404.627L809.427,406.218L809.331,399.918L807.263,395.467Z" class="land" id="CN-HB" title="Hubei"/>
    <path d="M855.599,238.05L855.892,240.953L858.361,246.275L854.132,245.019L853.287,242.231L850.96,241.292L850.016,239.038ZM806.732,226.287L802.603,221.865L799.553,219.807L801.374,217.391L797.747,213.68L799.363,212.201L802.648,212.436L799.909,207.193L800.761,204.993L802.698,204.196L802.492,201.191L805.381,201.713L808.279,203.711L809.378,207.208L811.807,210.529L816.609,209.478L821.937,204.726L825.259,206.803L827.739,206.028L828.516,203.496L832.341,204.878L836.295,203.262L833.85,196.303L835.674,194.913L839.882,195.295L840.285,193.084L845.004,193.19L849.56,196.504L850.057,199.249L855.468,202.056L858.409,206.306L856.3,208.228L862.927,215.775L869.37,214.831L871.323,215.845L875.497,215.911L874.819,221.602L873.335,222.319L873.895,225.203L882.047,229.928L886.28,229.861L889.393,235.365L891.439,236.127L894.344,239.714L891.053,241.232L891.266,242.952L889.319,244.144L889.746,250.758L888.146,254.044L884.931,255.116L882.658,254.524L879.805,257.142L877.941,256.54L874.523,253.592L872.673,251.053L870.003,249.49L869.985,247.186L866.5,247.108L863.002,243.643L861.372,239.869L863.754,239.781L859.519,235.428L857.201,235.455L853.761,232.787L852.528,230.589L852.94,227.762L848.17,227.058L841.335,221.951L838.155,221.973L839.697,225.31L836.535,225.369L835.886,228.466L833.104,228.426L831.479,229.788L832.397,231.533L836.462,234.824L835.632,237.023L832.496,237.401L830.792,239.07L832.596,241.131L834.002,245.789L837.354,246.758L838.977,248.349L841.742,246.921L845.598,247.556L847.863,249.427L850.373,246.23L853.394,246.576L855.545,249.876L858.817,256.427L856.94,258.796L858.953,262.278L863.108,262.967L865.129,265.055L867.474,265.364L871.328,263.805L875.275,268.724L878.502,270.955L877.392,274.253L875.629,274.421L875.09,278.394L865.958,278.709L863.175,284.469L861.533,283.585L859.82,286.902L857.512,287.729L857.593,292.457L856.653,297.1L854.071,298.064L852.955,300.763L853.65,304.403L856.013,306.008L857.847,308.801L856.2,310.299L852.424,308.039L851.645,310.559L849.528,309.397L845.293,309.694L841.841,307.804L836.553,306.929L835.3,305.464L831.06,305.345L827.616,302.881L825.571,300.267L827.548,297.559L827.869,293.852L827.273,290.728L828.625,283.08L828.363,281.536L824.967,278.888L820.65,272.795L815.694,270.776L814.107,263.989L815.446,263.823L816.354,260.685L814.119,258.14L816.917,255.123L818.458,256.661L821.71,256.015L821.347,247.704L818.537,245.844L816.765,241.937L811.595,241.021L809.95,236.214L814.774,234.889L812.007,232.905L809.939,228.923Z" class="land" id="CN-HE" title="Hebei"/>
    <path d="M863.65,599.546L865.551,602.247L867.999,602.383L870.612,608.821L867.13,612.918L865.958,613.536L864.828,621.686L865.614,624.38L864.201,626.791L862.164,626.62L859.768,629.229L859.44,631.806L855.08,631.614L855.182,634.299L852.656,635L850.646,633.63L846.313,633.574L845.014,632.185L838.163,629.591L837.627,625.462L836.175,623.528L836.441,621.771L835.218,618.8L834.977,615.338L839.79,610.045L842.221,608.776L841.484,606.342L843.295,603.97L846.806,605.261L846.702,603.422L849.086,602.377L851.531,603.533L854.115,603.411L855.885,601.371L862.094,600.823Z" class="land" id="CN-HI" title="Hainan"/>
    <path d="M906.527,557.023L909.19,556.306L910.303,558.597L907.996,559.463Z" class="land" id="CN-HK" title="Hong Kong"/>
    <path d="M1028.615,177.058L1027.386,178.328L1024.766,176.632L1021.837,176.597L1016.491,174.383L1010.948,168.669L1007.419,170.318L1004.665,167.211L1003.151,169.937L999.754,169.957L996.649,171.606L998.386,175.345L996.063,176.33L993.003,175.114L988.28,169.782L982.673,164.935L980.756,161.058L978.081,158.669L976.577,160.164L976.319,162.687L977.733,165.395L975.584,166.593L972.904,165.997L966.539,160.628L963.429,156.494L958.414,157.125L955.435,152.058L955.958,150.783L952.552,147.563L950.192,147.519L945.882,145.511L941.387,147.586L937.209,146.511L933.002,143.951L930.096,140.798L927.716,142.949L924.389,142.695L922.285,141.116L916.128,142.661L905.433,136.477L903.471,131.704L899.89,127.077L889.317,127.748L885.515,124.693L883.937,122.026L886.913,120.444L891.12,119.922L890.509,117.79L886.199,116.796L884.545,118.957L882.695,119.408L880.139,117.666L877.279,113.472L873.331,112.239L868.252,108.321L868.959,104.963L874.893,100.274L875.132,97.414L878.075,96.017L880.67,90.135L882.913,87.429L888.173,93.421L889.397,91.504L887.772,90.153L885.473,83.621L884.49,77.216L885.08,76.025L888.624,76.984L889.453,75.889L887.453,71.257L883.654,66.259L880.788,59.469L882.107,58.214L881.04,54.573L883.931,52.119L880.87,48.578L883.068,44.813L877.422,40.599L866.259,33.431L862.438,33.32L862.354,37.601L859.627,38.579L853.862,38.182L850.323,39.033L846.549,38.713L842.21,39.897L838.495,38.685L833.977,35.961L822.18,22.305L813.93,18.02L813.241,21.752L809.887,21.413L807.705,19.264L801.998,17.052L801.599,15.019L802.98,12.481L803.457,8.532L796.356,3.941L800.332,2.361L803.26,2.397L805.662,1.069L807.797,2.047L813.055,1.852L817.563,0L820.979,0.113L826.395,1.294L831.38,3.727L832.893,3.35L837.349,6.048L843.279,7.353L847.594,6.38L854.196,8.352L856.998,9.902L871.525,20.047L872.948,23.314L877.354,24.8L877.983,27.881L883.968,31.851L884.583,33.901L887.899,36.806L891.548,38.675L893.535,43.155L897.488,45.382L904.536,51.485L904.663,53.328L907.067,56.125L911.471,57.723L912.155,61.348L914.72,64.845L916.867,65.546L920.878,68.807L922.688,68.408L927.453,70.006L930.814,68.623L934.804,69.304L940.923,72.983L944.211,71.604L946.292,71.947L953.265,76.229L955.67,78.51L961.566,81.503L963.982,80.892L967.628,81.429L968.329,85.95L975.694,91.467L975.306,94.958L980.756,98.578L983.364,101.684L987.37,101.446L993.785,101.91L995.644,102.575L1005.682,101.773L1005.387,98.778L1009.944,94.89L1014.72,95.534L1019.855,90.885L1023.992,89.961L1026.687,90.303L1029.496,92.719L1030.009,96.322L1031.766,98.394L1035.889,101.097L1036.415,102.418L1035.241,106.562L1033.105,106.693L1032.484,110.044L1035.018,117.55L1036.628,120.522L1036.174,123.771L1039.067,127.42L1037.153,129.527L1038.87,133.227L1037.329,134.037L1038.508,139.1L1036.398,141.626L1037.626,145.7L1039.378,147.747L1038.129,149.55L1036.089,148.913L1037.399,155.426L1036.76,157.833L1032.751,156.761L1028.683,154.524L1027.642,150.674L1023.221,145.71L1019.265,144.408L1019.16,147.871L1015.207,151.253L1012.667,151.148L1011.33,152.502L1014.948,155.401L1023.336,166.317L1024.433,170.892Z" class="land" id="CN-HL" title="Heilongjiang"/>
    <path d="M805.185,436.79L806.13,433.701L805.785,431.232L807.034,427.711L810.346,426.433L810.187,425.238L815.059,424.615L819.634,427.438L823.027,424.886L820.311,422.382L819.833,419.75L822.974,418.661L825.852,419.61L830.767,420.046L833.51,422.309L838.79,422.264L842.407,423.757L844.786,426.585L850.023,429.209L850.745,427.465L854.455,428.163L856.498,424.46L858.92,430.336L861.937,430.949L864.261,426.233L868.694,426.618L871.155,430.825L869.884,434.214L872.95,437.866L876.109,438.137L878.922,441.791L880.276,442.184L881.04,446.147L884.298,451.21L882.553,453.812L882.366,456.222L878.777,458.229L879.475,460.784L877.934,465.53L880.733,469.277L883.546,470.133L882.894,473.452L885.952,476.199L885.299,478.874L887.244,482.299L890.54,482.777L890.82,486.008L889.732,490.481L891.711,492.161L892.163,494.892L891.295,498.536L893.162,501.507L893.218,503.41L888.011,506.026L885.753,505.147L881.898,502.359L879.346,505.423L877.063,505.665L879.397,508.866L880.973,512.987L878.909,513.596L876.047,511.53L874.822,509.33L868.692,508.804L867.634,511.365L868.407,513.254L866.848,516.444L861.875,515.614L860.326,518.274L858.293,517.698L858.389,515.347L856.489,509.884L853.754,509.073L850.574,513.127L849.296,510.794L850.606,506.54L852.922,503.646L852.876,500.704L851.884,498.712L853.686,497.685L849.075,493.407L849.278,488.92L844.608,487.666L841.359,488.962L838.743,487.419L836.233,491.777L834.555,493.087L831.787,492.706L831.52,490.438L828.924,490.852L828.69,495.005L825.328,492.66L823.007,492.955L821.455,489.149L818.537,487.532L819.694,483.729L818.383,481.539L820.095,476.273L818.881,473.99L816.705,472.362L813.718,473.996L811.415,473.661L809.112,471.425L811.125,470.046L812.608,467.126L815.809,464.828L814.737,461.853L812.935,460.176L811.238,456.146L811.493,452.279L809.611,451.405L808.764,448.042L806.406,441.217L806.852,438.155Z" class="land" id="CN-HN" title="Hunan"/>
    <path d="M889.317,127.748L899.89,127.077L903.471,131.704L905.433,136.477L916.128,142.661L922.285,141.116L924.389,142.695L927.716,142.949L930.096,140.798L933.002,143.951L937.209,146.511L941.387,147.586L945.882,145.511L950.192,147.519L952.552,147.563L955.958,150.783L955.435,152.058L958.414,157.125L963.429,156.494L966.539,160.628L972.904,165.997L975.584,166.593L977.733,165.395L976.319,162.687L976.577,160.164L978.081,158.669L980.756,161.058L982.673,164.935L988.28,169.782L993.003,175.114L996.063,176.33L998.386,175.345L996.649,171.606L999.754,169.957L1003.151,169.937L1004.665,167.211L1007.419,170.318L1010.948,168.669L1016.491,174.383L1021.837,176.597L1024.766,176.632L1027.386,178.328L1028.615,177.058L1029.82,178.597L1030.569,188.204L1027.641,187.921L1023.732,189.589L1025.651,192.633L1025.073,193.764L1020.928,190.797L1019.444,187.493L1013.351,185.59L1014.384,191.969L1015.887,195.227L1013.784,196.936L1011.168,195.516L1008.08,202.201L1002.56,203.627L999.251,202.898L996.284,203.95L999.516,208.517L1002.467,210.134L1003.163,211.956L1002.414,214.73L988.842,212.918L980.902,207.292L980.371,209.072L978.092,209.572L978.691,211.583L977.684,218.663L974.392,223.134L970.633,223.112L969.743,219.681L961.912,210.747L959.45,209.221L956.704,204.162L957.994,201.063L956.004,200.408L949.067,194.526L948.463,192.616L943.55,189.218L942.112,186.024L939.831,183.639L938.147,188.034L934.423,185.718L934.843,184.249L930.531,181.111L927.469,180.547L923.953,178.199L922.128,178.872L922.21,178.987L918.011,178.087L915.762,176.756L917.756,174.47L914.844,170.284L910.9,166.527L904.362,158.509L897.562,163.569L894.265,163.075L892.864,159.435L889.421,157.453L886.024,151.449L882.458,142.149L878.652,139.941L877.486,137.572L873.495,135.829L872.727,131.715L875.17,132.306L880.418,135.623L881.154,133.724L887.202,137.047L888.402,136.074L885.491,130.927L888.831,130.401Z" class="land" id="CN-JL" title="Jilin"/>
    <path d="M880.717,336.521L880.18,331.809L884.85,331.02L888.117,332.362L894.12,339.822L895.477,337.361L899.275,339.673L901.76,336.332L905.999,336.327L906.319,337.997L909.225,341.129L911.866,340.203L911.133,337.086L911.856,335.133L914.466,335.721L915.329,330.873L914.771,329.387L920.792,328.24L920.021,328.966L920.541,332.587L923.254,334.645L932.073,339.655L935.691,340.429L940.407,342.755L942.615,346.431L951.724,358.036L953.252,361.272L957.461,365.969L958.488,370.543L960.103,373.261L968.353,377.212L970.916,382.224L975.838,383.91L978.339,386.014L980.534,389.175L980.012,390.203L976.114,389.26L970.399,386.565L967.922,388.351L968.118,389.544L972.975,393.473L970.761,394.643L970.942,400.116L968.451,400.258L969.42,402.439L966.594,403.491L965.035,406.889L961.893,403.475L958.769,403.815L955.891,402.175L953.808,399.471L949.896,400.125L945.984,399.352L942.151,397.113L941.2,398.369L936.739,398.431L935.052,397.119L936.854,394.856L935.63,391.31L932.447,390.914L926.466,385.624L925.968,382.971L926.997,380.917L929.162,380.481L927.657,373.368L934.735,375.497L934.27,371.286L930.014,367.015L927.576,367.032L927.401,370.957L925.065,371.31L920.474,370.298L918.612,367.631L916.564,362.638L914.464,363.735L912.439,362.195L913.508,357.634L911.722,352.412L906.343,353.074L905.773,350.206L903.78,348.236L898.533,346.5L896.297,346.88L893.169,344.93L890.899,341.006L884.735,338.879Z" class="land" id="CN-JS" title="Jiangsu"/>
    <path d="M904.867,424.02L906.974,424.751L910.495,422.646L910.453,419.812L913.431,420.152L915.63,421.704L913.575,427.382L916.747,428.589L920.066,426.027L918.836,423.842L921.122,422.446L924.981,425.353L927.868,428.343L929.82,428.987L934.254,428.474L937.932,431.828L936.655,435.763L938.643,439.131L941.422,440.391L945.327,444.94L947.158,451.883L946.89,455.372L943.776,456.126L940.28,458.099L939.122,460.709L935.049,457.34L931.613,462.362L929.122,463.491L933.21,470.335L932.241,473.527L927.472,475.553L925.962,478.216L927.117,483.217L929.034,484.983L926.37,488.611L928.427,491.477L927.256,494.131L924.178,496.064L925.293,497.594L923.815,499.174L923.868,503.291L924.776,505.81L922.914,507.849L924.51,512.887L923.424,516.328L925.408,519.617L923.72,520.069L921.155,518.581L919.154,516.096L916.234,516.183L914.025,517.836L911.522,518.076L910.776,519.706L908.673,518.739L904.434,521.039L902.889,519.208L899.761,517.66L901.822,516.297L901.922,512.591L905.221,510.313L905.921,507.309L902.017,504.116L900.22,505.95L898.039,506.44L894.763,505.121L893.218,503.41L893.162,501.507L891.295,498.536L892.163,494.892L891.711,492.161L889.732,490.481L890.82,486.008L890.54,482.777L887.244,482.299L885.299,478.874L885.952,476.199L882.894,473.452L883.546,470.133L880.733,469.277L877.934,465.53L879.475,460.784L878.777,458.229L882.366,456.222L882.553,453.812L884.298,451.21L881.04,446.147L880.276,442.184L878.922,441.791L876.109,438.137L877.098,435.168L879.689,434.681L879.379,432.557L883.18,433.088L885.23,431.761L887.904,431.636L887.961,429.321L893.256,427.623L895.371,425.522L895.448,423.711L897.867,423.451L902.306,425.84Z" class="land" id="CN-JX" title="Jiangxi"/>
    <path d="M894.344,239.714L891.439,236.127L889.393,235.365L886.28,229.861L882.047,229.928L873.895,225.203L873.335,222.319L874.819,221.602L875.497,215.911L876.585,213.029L873.312,208.921L871.508,204.18L871.371,201.948L868.567,198.748L871.562,197.175L873.266,198.974L877.034,199.732L877.867,201.736L882.988,206.904L884.577,207.684L885.512,204.56L887.543,203.203L886.762,201.708L891.398,198.797L893.731,199.066L896.217,195.406L899.424,194.311L901.741,195.516L903.395,193.018L902.932,191.279L906.386,190.555L909.389,191.401L907.808,188.381L911.962,189.688L918.259,189.688L919.016,185.811L921.91,184.928L923.701,185.667L922.246,179.039L922.128,178.872L923.953,178.199L927.469,180.547L930.531,181.111L934.843,184.249L934.423,185.718L938.147,188.034L939.831,183.639L942.112,186.024L943.55,189.218L948.463,192.616L949.067,194.526L956.004,200.408L957.994,201.063L956.704,204.162L959.45,209.221L961.912,210.747L969.743,219.681L970.633,223.112L974.392,223.134L972.574,223.569L969.591,226.739L964.522,229.944L961.921,232.875L958.397,238.407L957.867,242.882L953.415,242.134L949.237,243.162L945.716,243.216L944.279,245.546L940.132,246.924L937.722,249.194L935.186,249.49L932.968,253.627L933.845,254.805L930.76,258.335L927.347,258.561L926.692,260.875L924.949,260.748L923.425,262.6L920.572,259.484L927.477,256.143L925.012,252.654L926.669,251.21L919.933,247.971L920.402,246.174L919.721,241.944L923.86,239.546L924.328,234.295L926.459,230.976L922.829,228.691L922.345,227.277L916.881,224.698L912.48,224.408L906.374,222.903L903.282,227.335L901.528,231.362L901.501,235.996L899.536,236.246Z" class="land" id="CN-LN" title="Liaoning"/>
    <path d="M900.503,563.201L901.067,563.881L900.622,564.223L900.202,563.3Z" class="land" id="CN-MO" title="Macau"/>
    <path d="M796.356,3.941L803.457,8.532L802.98,12.481L801.599,15.019L801.998,17.052L807.705,19.264L809.887,21.413L813.241,21.752L813.93,18.02L822.18,22.305L833.977,35.961L838.495,38.685L842.21,39.897L846.549,38.713L850.323,39.033L853.862,38.182L859.627,38.579L862.354,37.601L862.438,33.32L866.259,33.431L877.422,40.599L883.068,44.813L880.87,48.578L883.931,52.119L881.04,54.573L882.107,58.214L880.788,59.469L883.654,66.259L887.453,71.257L889.453,75.889L888.624,76.984L885.08,76.025L884.49,77.216L885.473,83.621L887.772,90.153L889.397,91.504L888.173,93.421L882.913,87.429L880.67,90.135L878.075,96.017L875.132,97.414L874.893,100.274L868.959,104.963L868.252,108.321L873.331,112.239L877.279,113.472L880.139,117.666L882.695,119.408L884.545,118.957L886.199,116.796L890.509,117.79L891.12,119.922L886.913,120.444L883.937,122.026L885.515,124.693L889.317,127.748L888.831,130.401L885.491,130.927L888.402,136.074L887.202,137.047L881.154,133.724L880.418,135.623L875.17,132.306L872.727,131.715L873.495,135.829L877.486,137.572L878.652,139.941L882.458,142.149L886.024,151.449L889.421,157.453L892.864,159.435L894.265,163.075L897.562,163.569L904.362,158.509L910.9,166.527L914.844,170.284L917.756,174.47L915.762,176.756L918.011,178.087L922.21,178.987L922.246,179.039L923.701,185.667L921.91,184.928L919.016,185.811L918.259,189.688L911.962,189.688L907.808,188.381L909.389,191.401L906.386,190.555L902.932,191.279L903.395,193.018L901.741,195.516L899.424,194.311L896.217,195.406L893.731,199.066L891.398,198.797L886.762,201.708L887.543,203.203L885.512,204.56L884.577,207.684L882.988,206.904L877.867,201.736L877.034,199.732L873.266,198.974L871.562,197.175L868.567,198.748L871.371,201.948L871.508,204.18L873.312,208.921L876.585,213.029L875.497,215.911L871.323,215.845L869.37,214.831L862.927,215.775L856.3,208.228L858.409,206.306L855.468,202.056L850.057,199.249L849.56,196.504L845.004,193.19L840.285,193.084L839.882,195.295L835.674,194.913L833.85,196.303L836.295,203.262L832.341,204.878L828.516,203.496L827.739,206.028L825.259,206.803L821.937,204.726L816.609,209.478L811.807,210.529L809.378,207.208L808.279,203.711L805.381,201.713L802.492,201.191L802.698,204.196L800.761,204.993L799.909,207.193L802.648,212.436L799.363,212.201L797.747,213.68L801.374,217.391L799.553,219.807L802.603,221.865L806.732,226.287L807.215,230.04L803.384,230.969L801.312,233.278L798.014,233.77L796.41,232.116L791.89,233.678L790.979,236.534L785.897,234.176L784.033,235.01L782.473,243.059L783.162,246.497L780.894,246.937L776.625,245.697L776.065,249.847L773.393,250.946L770.441,247.379L768.732,248.626L766.725,253.094L764.373,250.663L757.577,254.204L754.942,256.4L755.268,258.823L752.471,261.133L752.694,262.772L750.229,265.554L749.013,269.543L749.458,272.381L751.852,274.101L751.267,277.081L748.786,276.688L750.481,281.374L739.491,281.701L737.987,279.422L732.892,277.929L728.891,276.585L726.819,274.019L724.048,272.806L721.914,273.462L718.864,272.802L714.533,270.904L713.078,269.219L714.383,265.905L713.591,262.576L715.9,258.48L715.112,256.493L711.546,253.341L710.637,251.002L707.952,250.989L706.771,252.336L704.02,252.686L703.052,254.654L702.931,257.947L701.817,259.309L701.87,264.246L702.912,268.166L704.369,270.796L703.84,273.235L705.714,275.593L705.841,279.288L704.122,281.102L701.157,280.914L697.438,282.296L696.215,283.899L692.483,284.598L688.018,284.421L686.657,286L685.311,286.366L680.026,283.045L675.601,279.532L671.463,278.416L669.272,274.017L671.516,272.849L668.033,268.29L673.264,263.997L673.957,259.551L675.694,258.642L675.181,255.908L671.655,252.217L671.436,250.044L667.513,249.304L661.367,251.338L657.73,255.741L651.529,254.305L648.881,252.998L645.725,254.506L640.585,255.742L645.703,259.448L642.752,263.641L640.454,263.693L635.52,261.509L632.265,258.402L629.936,258.359L626.709,255.45L624.773,250.417L619.739,250.396L616.404,248.23L614.34,245.178L610.588,244.231L606.098,241.598L601.672,241.777L602.885,238.389L606.084,235.72L606.531,232.388L608.384,228.72L607.415,226.537L604.469,223.634L598.178,222.741L597.153,224.253L591.475,223.967L587.737,225.978L585.905,229.777L580.385,230.081L580.04,224.469L579.023,223.073L572.71,219.803L565.225,213.288L567.19,209.685L550.571,189.715L563.027,191.299L566.574,192.116L584.782,193.33L591.349,191.941L595.554,192.242L595.817,191.299L604.397,191.982L618.452,195.06L623.712,199.633L629.254,201.036L633.922,201.151L643.796,205.219L652.192,207.006L661.391,205.645L662.786,209.618L668.775,209.929L670.592,211.324L673.311,208.325L678.826,204.32L689.249,198.905L696.848,197.159L698.738,195.27L705.639,196.165L709.919,195.27L718.041,196.205L720.341,195.365L724.91,195.971L728.475,195.094L731.421,192.347L735.859,192.116L738.861,189.256L740.509,184.604L743.193,179.477L749.537,176.865L750.574,173.188L753.037,172.548L753.02,170.956L749.558,167.886L745.863,166.606L740.172,161.54L739.619,154.838L740.24,150.58L742.518,148.3L748.923,148.809L755.024,152.135L760.967,153.473L765.824,153.613L768.496,154.465L772.771,150.763L775.651,146.962L775.792,143.243L778.483,141.841L782.391,142.754L787.307,143.086L792.194,142.101L792.271,140.956L797.191,136.367L795.41,133.007L797.013,127.031L802.022,125.96L807.37,125.939L806.361,121.845L812.17,122.924L816.095,118.164L820.846,118.601L825.681,117.622L836.711,122.361L839.448,118.796L836.222,115.764L834.936,112.246L832.343,110.99L831.38,108.731L827.896,108.463L821.553,104.875L819.668,101.984L813.898,100.161L808.01,96.75L802.698,96.088L798.16,96.926L796.023,103.135L790.784,100.102L785.758,98.512L782.005,99.529L778.387,98.925L775.749,102.473L768.446,97.881L765.338,93.576L768.889,91.987L766.458,87.394L768.061,82.806L766.467,81.213L766.406,64.458L770.918,66.537L776.23,68.103L779.058,68.157L785.375,70.31L791.066,62.959L798.912,61.449L799.604,58.605L795.414,55.626L794.203,51.127L795.669,48.764L794.484,45.857L795.71,43.9L795.463,36.37L794.688,33.877L797.703,28.916L799.569,28.132L798.995,24.15L795.285,21.479L793.746,17.516L789.643,15.814L784.968,16.802L782.574,13.558L785.297,11.374L788.184,4.924L793.257,4.798Z" class="land" id="CN-NM" title="Nei Mongol"/>
    <path d="M686.657,286L688.018,284.421L692.483,284.598L696.215,283.899L697.438,282.296L701.157,280.914L704.122,281.102L705.841,279.288L705.714,275.593L703.84,273.235L704.369,270.796L702.912,268.166L701.87,264.246L701.817,259.309L702.931,257.947L703.052,254.654L704.02,252.686L706.771,252.336L707.952,250.989L710.637,251.002L711.546,253.341L715.112,256.493L715.9,258.48L713.591,262.576L714.383,265.905L713.078,269.219L714.533,270.904L718.864,272.802L721.914,273.462L724.048,272.806L726.819,274.019L728.891,276.585L732.892,277.929L733.089,279.606L729.458,282.687L732.349,292.264L730.31,291.058L728.392,291.748L724.754,290.937L723.08,294.811L724.959,297.048L723.518,298.676L723.512,301.689L724.979,303.214L726,306.53L731.03,307.69L732.96,309.694L735.018,315.364L733.957,317.056L729.791,316.503L728.598,317.417L731.438,323.492L730.153,325.735L726.24,322.091L723.428,320.452L719.843,319.672L716.646,316.521L714.504,316.858L711.194,313.829L710.381,311.577L712.24,309.196L710.89,306.55L704.415,298.928L705.83,297.515L703.16,295.767L702.288,293.978L699.071,292.914L696.215,289.782L693.815,290.243L692.174,288.797L692.377,286.361Z" class="land" id="CN-NX" title="Ningxia Hui"/>
    <path d="M504.975,256.84L513.245,259.327L516.416,260.669L519.721,263.527L525.133,262.687L528.561,265.379L534.661,264.537L540.366,270.617L545.03,270.11L551.285,270.279L555.666,272.142L563.486,271.804L567.411,273.84L570.341,273.84L572.901,272.142L574.94,269.541L573.934,264.983L571.734,259.769L570.79,253.928L575.637,254.578L587.153,260.152L588.567,261.269L591.444,257.07L594.885,258.796L597.395,256.071L607.459,262.687L609.381,264.721L613.745,267.768L620.543,270.586L619.753,268.25L621.446,267.41L623.921,269.884L628.162,271.195L629.562,273.795L637.282,276.672L649.335,284.189L650.093,281.585L653.723,283.367L653.404,285.161L656.548,286.091L663.643,290.734L662.812,294.205L667.966,297.981L668.787,300.721L672.04,305.644L675.307,307.213L674.865,309.919L676.653,314.833L674.091,314.365L673.044,315.451L675.084,318.762L675.076,320.43L672.148,319.75L671.334,322.197L669.477,323.08L671.772,325.684L671.236,328.942L669.257,329.708L666.895,332.175L667.62,334.668L664.955,335.371L669.968,338.285L672.397,338.902L673.641,341.637L672.302,342.937L671.571,346.199L668.625,346.744L666.279,344.812L661.565,343.639L660.379,342.708L654.632,341.262L653.769,344.883L658.508,349.908L661.267,351.037L663.393,353.922L668.589,354.099L670.09,357.215L671.974,356.359L671.324,360.446L672.8,361.265L672.362,364.232L669.189,362.149L664.9,363.515L665.605,367.902L667.739,369.431L667.846,371.931L664.367,373.493L660.27,372.105L658.605,373.922L655.755,370.716L651.946,371.184L650.921,368.872L646.854,367.388L645.458,370.63L639.576,367.916L636.395,365.62L630.818,363.421L628.856,361.134L627.536,357.549L625.511,354.469L621.591,350.859L614.552,349.036L612.058,350.703L610.845,348.588L605.495,350.095L607.128,353.803L611.756,360.061L610.595,363.257L612.039,365.482L609.926,367.914L611.984,371.678L617.335,374.86L616.739,375.81L611.998,374.878L613.751,378.839L611.949,379.271L612.367,382.958L611.369,383.879L608.066,383.24L606.189,387.154L607.961,389.445L603.643,389.476L599.213,385.52L597.522,386.369L597.074,389.678L593.586,389.524L589.715,388.393L588.276,389L585.071,385.129L585.065,381.575L582.746,379.843L579.412,379.932L575.67,376.081L570.54,372.256L567.485,374.978L565.132,375.061L564.532,376.562L559.185,374.398L556.742,374.035L555.206,375.792L552.899,374.87L550.294,372.438L547.726,373.021L546.445,370.932L544.563,371.766L538.115,370.554L535.488,371.366L532.918,368.379L530.626,369.582L523.531,365.333L519.811,361.74L514.105,361.906L512.555,364.278L510.382,363.737L506.725,361.488L504.934,361.357L502.345,358.931L501.757,357.133L497.579,354.814L495.906,351.704L493.566,350.491L490.535,347.176L492.475,345.095L490.683,338.234L488.578,334.982L490.154,333.297L488.707,331.468L485.164,331.208L484.639,327.93L482.067,325.802L482.072,323.368L484.599,322.354L484.04,314.534L478.193,313.261L478.862,311.378L481.927,310.336L485.171,310.463L484.993,306.811L488.856,308.877L495.577,309.489L498.519,311.483L499.988,309.937L501.877,310.153L499.54,305.872L498.56,302.138L493.933,301.154L492.653,296.898L493.937,295.219L496.293,295.101L498.087,293.245L497.317,289.899L494.5,285.249L492.283,285.058L490.833,283.257L487.079,281.01L484.874,280.521L482.37,277.723L483.119,276.459L480.214,273.522L475.729,267.826L479.293,266.693L483.383,263.662L490.561,262.04L492.236,260.915L498.04,259.703Z" class="land" id="CN-QH" title="Qinghai"/>
    <path d="M671.974,356.359L674.944,358.219L673.43,361.653L675.718,364.307L678.317,361.434L679.83,358.691L682.793,357.879L679.871,355.05L675.887,349.02L678.734,348.635L678.696,346.513L682.23,343.313L685.277,342.824L688.253,344.916L690.872,351.571L694.139,352.784L700.777,354.322L704.721,353.821L709.564,359.167L712.709,364.298L712.281,367.373L713.082,369.377L718.887,372.412L724.998,372.727L726.375,373.69L730.638,371.05L728.791,368.576L730.346,367.936L732.905,371.766L735.669,369.549L738.655,368.705L740.435,371.277L743.109,372.347L748.119,372.44L749.682,371.148L755.401,372.645L755.839,374.823L758.599,376.882L760.122,374.654L763.144,377.492L765.022,377.165L768.908,380.692L774.288,379.418L777.911,379.54L778.804,380.63L778.513,383.201L776.327,385.004L781.382,388.793L778.439,396.572L776.722,402.968L776.53,406.132L770.977,405.534L770.163,407.296L771.969,409.197L770.813,411.806L769.876,416.701L767.657,420.153L763.653,420.286L759.53,415.256L755.266,417.428L753.183,415.018L747.918,412.935L747.316,416.163L744.871,417.672L747.792,420.059L749.24,423.447L747.399,425.676L745.394,426.598L744.211,429.178L746.99,431.621L747.868,433.714L751.441,433.757L752.68,437.13L754.689,440.084L756.366,440.786L761.091,440.899L764.403,447.06L765.185,447.551L760.733,445.705L758.086,443.467L757.607,446.247L754.64,446.376L754.045,448.322L755.107,451.432L757.092,451.092L759.122,452.683L759.612,454.875L763.424,454.148L766.861,457.626L767.755,460.36L765.939,461.591L759.166,462.451L757.951,463.358L755.203,461.251L752.765,462.483L749.399,456.004L746.289,456.046L745.487,458.788L741.31,459.982L736.296,456.321L737.99,454.992L737.681,452.632L733.984,449.978L732.529,445.449L728.485,446.18L726.352,447.665L728.545,451.619L726.653,453.445L725.249,452.396L723.079,454.866L724.631,457.717L725.108,460.549L722.636,463.867L721.453,467.639L718.139,469.86L719.064,474.788L721.728,479.025L723.966,483.767L723.598,487.132L720.287,488.48L718.296,487.384L714.778,488.155L711.35,492.239L706.51,490.592L704.523,489.104L703.078,486.272L698.821,483.389L699.708,481.252L697.444,479.451L697.054,477.418L693.114,474.866L692.721,471.625L690.727,470.098L686.708,464.259L681.794,458.697L680.867,460.556L677.043,459.631L672.879,456.432L671.598,453.828L673.482,453.123L668.478,446.525L662.69,442.42L662.134,446.551L660.249,447.443L661.721,453.017L660.598,453.216L657.678,449.643L657.054,446.471L654.999,442.478L653.14,434.45L650.87,428.832L649.498,426.78L649.491,422.082L647.18,417.946L645.962,413.738L643.516,408.265L644.051,406.97L640.745,404.569L640.475,402.477L636.692,399.154L636.475,396.473L639.043,398.022L639.985,395.745L635.071,391.872L630.858,387.497L630.249,384.235L626.12,380.25L625.045,377.892L621.144,375.853L617.335,374.86L611.984,371.678L609.926,367.914L612.039,365.482L610.595,363.257L611.756,360.061L607.128,353.803L605.495,350.095L610.845,348.588L612.058,350.703L614.552,349.036L621.591,350.859L625.511,354.469L627.536,357.549L628.856,361.134L630.818,363.421L636.395,365.62L639.576,367.916L645.458,370.63L646.854,367.388L650.921,368.872L651.946,371.184L655.755,370.716L658.605,373.922L660.27,372.105L664.367,373.493L667.846,371.931L667.739,369.431L665.605,367.902L664.9,363.515L669.189,362.149L672.362,364.232L672.8,361.265L671.324,360.446Z" class="land" id="CN-SC" title="Sichuan"/>
    <path d="M920.792,328.24L914.771,329.387L915.329,330.873L914.466,335.721L911.856,335.133L911.133,337.086L911.866,340.203L909.225,341.129L906.319,337.997L905.999,336.327L901.76,336.332L899.275,339.673L895.477,337.361L894.12,339.822L888.117,332.362L884.85,331.02L880.18,331.809L880.717,336.521L878.412,337.635L876.914,337.142L873.194,337.915L868.789,337.644L865.878,333.701L859.892,329.806L857.253,330.461L854.939,326.831L856.299,323.214L860.347,321.143L860.993,316.793L863.236,316.601L865.65,312.42L863.713,311.688L857.983,315.139L858.385,311.632L857.847,308.801L856.013,306.008L853.65,304.403L852.955,300.763L854.071,298.064L856.653,297.1L857.593,292.457L857.512,287.729L859.82,286.902L861.533,283.585L863.175,284.469L865.958,278.709L875.09,278.394L875.629,274.421L877.392,274.253L878.502,270.955L883.057,273.048L888.378,273.63L893.521,273.039L895.361,273.896L899.191,278.579L899.723,281.258L899.055,284.153L900.414,287.571L906.908,292.686L913.842,291.529L915.067,289.22L913.415,287.023L916.487,285.716L918.558,283.223L919.594,280.283L923.286,278.689L925.251,278.689L927.933,280.755L929.905,280.862L931.366,283.214L934.245,283.333L938.21,285.926L943.275,285.224L944.756,284.037L946.905,285.997L951.444,285.952L955.219,290.252L953.541,290.937L955.128,293.303L953.891,296.653L947.295,294.465L944.963,296.548L937.655,299.587L935.413,303.678L932.51,304.649L934.701,309.437L930.977,310.841L929.36,308.768L926.275,308.159L926.024,310.037L928.562,312.775L926.738,314.075L927.234,316.903L926.361,318.441L922.787,319.714L922.737,322.773L921.304,325.247Z" class="land" id="CN-SD" title="Shandong"/>
    <path d="M976.767,408.301L970.967,402.63L969.42,402.439L968.451,400.258L970.942,400.116L970.761,394.643L972.975,393.473L974.461,393.922L980.636,397.917L983.233,400.594L985.52,405.209L979.955,405.874ZM970.382,386.858L977.251,390.881L982.298,392.809L980.843,394.678L973.07,391.35L968.857,388.331Z" class="land" id="CN-SH" title="Shanghai"/>
    <path d="M732.892,277.929L737.987,279.422L739.491,281.701L750.481,281.374L748.786,276.688L751.267,277.081L751.852,274.101L749.458,272.381L749.013,269.543L750.229,265.554L752.694,262.772L752.471,261.133L755.268,258.823L754.942,256.4L757.577,254.204L764.373,250.663L766.725,253.094L768.732,248.626L770.441,247.379L773.393,250.946L775.057,252.607L775.364,256.638L773.779,258.019L775.002,259.778L774.653,263.897L775.776,267.298L772.582,270.194L772.28,272.405L773.875,276.361L775.33,277.189L780.517,283.778L780.636,287.544L779.048,294.404L780.935,299.466L782.567,301.339L784.361,308.882L790.053,318.564L790.075,322.654L789.177,324.972L789.102,330.571L790.329,335.558L792.879,337.182L793.136,338.918L796.144,342.04L795.807,343.667L800.97,348.987L800.51,350.701L803.339,351.751L804.886,354.059L808.047,355.885L809.706,360.119L809.481,361.597L807.649,363.54L798.948,363.391L792.831,361.777L787.83,362.095L787.259,363.52L792.93,365.01L793.427,367.954L797.505,368.587L799.551,369.753L801.1,373.655L799.175,374.505L797.34,373.671L793.025,373.664L792.785,378.984L795.739,382.574L797.126,389.331L792.863,389.593L792.206,388.041L787.762,385.084L785.431,384.542L778.804,380.63L777.911,379.54L774.288,379.418L768.908,380.692L765.022,377.165L763.144,377.492L760.122,374.654L758.599,376.882L755.839,374.823L755.401,372.645L749.682,371.148L748.119,372.44L743.109,372.347L740.435,371.277L738.655,368.705L735.669,369.549L732.905,371.766L730.346,367.936L732.563,368.467L736.077,366.387L734.757,361.957L732.845,361.557L732.283,357.318L733.356,355.234L737.056,356.359L740.258,355.043L739.919,350.919L738.562,350.05L738.598,346.223L739.734,345.567L740.271,341.356L737.458,339.254L733.141,337.608L735.575,333.338L733.718,331.058L733.708,328.414L739.102,328.278L744.451,332.135L745.52,331.143L749.146,331.595L752.912,330.787L748.977,325.566L750.595,324.505L753.511,325.597L756.269,324.375L761.025,324.826L762.417,323.796L761.366,319.988L759.385,318.285L757.586,313.95L759.409,312.806L759.128,309.364L757.452,307.121L757.73,305.174L751.243,301.795L748.348,301.705L744.839,299.984L743.443,298.098L737.803,296.878L736.485,295.452L733.861,295.275L732.349,292.264L729.458,282.687L733.089,279.606Z" class="land" id="CN-SN" title="Shaanxi"/>
    <path d="M806.732,226.287L809.939,228.923L812.007,232.905L814.774,234.889L809.95,236.214L811.595,241.021L816.765,241.937L818.537,245.844L821.347,247.704L821.71,256.015L818.458,256.661L816.917,255.123L814.119,258.14L816.354,260.685L815.446,263.823L814.107,263.989L815.694,270.776L820.65,272.795L824.967,278.888L828.363,281.536L828.625,283.08L827.273,290.728L827.869,293.852L827.548,297.559L825.571,300.267L827.616,302.881L831.06,305.345L831.449,309.634L833.323,314.828L832.249,315.174L832.905,320.381L830.672,322.291L827.108,323.414L826.311,325.472L817.802,326.071L813.414,324.892L814.732,328.833L811.261,328.69L809.484,330.172L808.861,332.749L804.123,333.781L797.383,337.37L792.879,337.182L790.329,335.558L789.102,330.571L789.177,324.972L790.075,322.654L790.053,318.564L784.361,308.882L782.567,301.339L780.935,299.466L779.048,294.404L780.636,287.544L780.517,283.778L775.33,277.189L773.875,276.361L772.28,272.405L772.582,270.194L775.776,267.298L774.653,263.897L775.002,259.778L773.779,258.019L775.364,256.638L775.057,252.607L773.393,250.946L776.065,249.847L776.625,245.697L780.894,246.937L783.162,246.497L782.473,243.059L784.033,235.01L785.897,234.176L790.979,236.534L791.89,233.678L796.41,232.116L798.014,233.77L801.312,233.278L803.384,230.969L807.215,230.04Z" class="land" id="CN-SX" title="Shanxi"/>
    <path d="M857.201,235.455L859.519,235.428L863.754,239.781L861.372,239.869L863.002,243.643L866.5,247.108L869.985,247.186L870.003,249.49L872.673,251.053L874.523,253.592L872.435,253.836L870.605,255.903L871.293,258.16L870.742,262.038L871.328,263.805L867.474,265.364L865.129,265.055L863.108,262.967L858.953,262.278L856.94,258.796L858.817,256.427L855.545,249.876L853.394,246.576L854.132,245.019L858.361,246.275L855.892,240.953L855.599,238.05Z" class="land" id="CN-TJ" title="Tianjin"/>
    <path d="M999.907,552.557L997.866,548.606L995.434,546.668L996.092,540.988L994.751,536.413L994.616,533.436L995.943,532.977L996.402,528.138L997.536,526.327L999.312,519.032L1001.474,516.316L1001.258,514.52L1002.39,511.052L1007.028,509.057L1007.491,507.196L1009.525,506.419L1012.029,508.715L1015.245,509.648L1015.985,512.268L1015.047,514.606L1017.184,520.191L1016.615,524.3L1015.526,526.151L1015.947,538.598L1016.309,539.294L1015.565,546.467L1014.121,552.48L1012.333,554.134L1011.584,560.2L1012.863,565.589L1010.381,567.404L1009.772,564.288L1006.766,559.488L1002.713,557.008Z" class="land" id="CN-TW" title="Taiwan"/>
    <path d="M539.285,190.695L536.234,192.799L539.262,205.456L535.397,206.753L533.085,206.169L527.031,207.522L522.281,210.344L519.963,214.484L515.89,219.922L514.38,223.753L513.564,228.486L510.316,231.028L503.841,230.564L506.235,237.673L505.332,241.71L508.857,247.685L510.38,249.351L512.12,254.498L505.964,255.611L504.975,256.84L498.04,259.703L492.236,260.915L490.561,262.04L483.383,263.662L479.293,266.693L475.729,267.826L480.214,273.522L483.119,276.459L482.37,277.723L484.874,280.521L487.079,281.01L490.833,283.257L492.283,285.058L494.5,285.249L497.317,289.899L498.087,293.245L496.293,295.101L493.937,295.219L492.653,296.898L493.933,301.154L498.56,302.138L499.54,305.872L501.877,310.153L499.988,309.937L498.519,311.483L495.577,309.489L488.856,308.877L484.993,306.811L485.171,310.463L481.927,310.336L478.029,309.127L473.599,306.521L472.267,307.278L468.71,305.258L466.72,306.401L461.464,303.127L454.563,303.93L453.574,305.153L449.013,305.655L445.846,304.317L443.081,306.476L437.387,306.523L430.004,309.526L429.27,314.661L428.116,315.778L422.177,317.097L418.076,315.85L414.807,316.457L412.442,318.394L407.226,320.059L407.531,321.322L404.11,323.493L402.08,322.541L399.55,323.439L394.805,323.793L390.054,322.374L388.456,322.764L386.193,321.203L384.779,317.812L376.62,317.159L375.923,319.955L372.419,321.847L372.493,324.043L370.566,325.278L366.113,325.563L363.893,323.492L358.06,324.393L352.99,323.838L349.187,321.658L347.126,323.463L347.567,325.182L344.875,328.915L344.876,332.507L343.677,339.43L341.532,340.011L334.295,340.091L333.074,342.049L331.308,341.409L325.03,337.047L322.834,337.165L319.623,335.144L315.894,328.509L313.305,322.857L310.116,320.612L304.251,321.507L300.853,320.423L291.107,315.77L290.12,313.361L287.281,314.889L285.347,314.572L281.038,308.85L280.172,304.665L276.41,299.634L273.088,297.941L270.404,298.796L268.631,295.382L264.627,293.394L261.725,294.938L258.718,293.355L256.149,293.14L253.813,291.657L254.083,289.374L258.821,289.883L262.872,287.957L262.68,285.95L259.096,283.686L258.193,281.851L256.895,275.495L254.237,272.302L253.426,269.42L253.909,266.543L246.039,263.819L242.505,263.642L242.313,266.056L237.772,264.595L235.364,257.037L231.622,252.906L234.796,249.212L235.576,246.865L233.219,243.667L234.728,237.944L239.09,238.032L243.069,233.305L244.005,230.086L246.656,231.425L250.02,231.589L254.339,227.673L257.718,234.545L262.706,232.199L266.401,233.062L268.621,231.207L269.593,228.181L268.789,225.9L270.519,224.208L270.777,221.154L273.208,220.458L282.347,221.557L285.031,220.215L287.842,220.942L289.478,220.111L291.296,216.657L290.678,214.151L293.912,213.087L301.185,207.439L306.959,207.328L308.237,203.246L314.256,202.487L313.185,198.684L311.217,195.884L311.721,194.305L309.434,191.727L309.743,188.7L314.096,187.495L310.478,184.785L315.34,182.962L313.164,177.414L307.856,170.702L304.546,165.063L301.682,159.151L302.202,154.665L298.731,152.76L295.447,153.444L294.017,152.06L294.54,149.657L298.971,149.11L299.799,147.807L303.106,146.812L305.63,147.581L308.124,146.002L315.449,143.38L318.216,146.257L320.414,147.113L324.131,145.703L328.096,147.757L328.925,145.783L327.878,142.224L322.901,140.435L322.288,137.959L323.142,132.419L322.258,128.858L323.132,122.945L322.641,118.836L322.845,110.656L327.535,111.329L331.454,113.373L338.41,115.018L343.56,114.222L347.168,114.322L349.977,117.472L351.87,116.677L354.321,113.458L358.544,113.355L359.749,110.323L358.948,107.769L352.937,97.82L352.737,90.22L353.945,89.221L358.911,89.087L363.341,87.195L364.575,84.176L364.375,81.926L362.133,79.333L363.238,77.193L366.68,76.523L371.049,77.711L376.096,76.099L376.856,80.278L378.221,82.449L382.834,84.313L382.611,86.712L387.891,88.334L392.631,90.867L393.077,92.694L398.137,94.641L403.549,97.599L405.163,95.989L407.847,95.894L412.638,99.958L414.691,99.981L421.249,102.799L424.085,105.798L426.612,110.088L431.291,114.379L434.117,115.232L437.915,119.683L439.072,122.125L438.519,126.712L441.967,131.72L439.622,137.287L440.332,140.707L443.104,143.163L445.496,146.488L448.992,146.307L456.383,148.808L462.287,148.671L469.681,149.726L477.426,149.575L483.947,150.523L495.682,155.918L498.399,158.332L502.458,159.738L504.819,161.533L509.606,163.196L515.482,162.575L516.016,166.931L519.304,167.944L523.337,173.464L527.895,178.428L528.98,180.864L537.621,187.733Z" class="land" id="CN-XJ" title="Xinjiang Uygur"/>
    <path d="M331.308,341.409L333.074,342.049L334.295,340.091L341.532,340.011L343.677,339.43L344.876,332.507L344.875,328.915L347.567,325.182L347.126,323.463L349.187,321.658L352.99,323.838L358.06,324.393L363.893,323.492L366.113,325.563L370.566,325.278L372.493,324.043L372.419,321.847L375.923,319.955L376.62,317.159L384.779,317.812L386.193,321.203L388.456,322.764L390.054,322.374L394.805,323.793L399.55,323.439L402.08,322.541L404.11,323.493L407.531,321.322L407.226,320.059L412.442,318.394L414.807,316.457L418.076,315.85L422.177,317.097L428.116,315.778L429.27,314.661L430.004,309.526L437.387,306.523L443.081,306.476L445.846,304.317L449.013,305.655L453.574,305.153L454.563,303.93L461.464,303.127L466.72,306.401L468.71,305.258L472.267,307.278L473.599,306.521L478.029,309.127L481.927,310.336L478.862,311.378L478.193,313.261L484.04,314.534L484.599,322.354L482.072,323.368L482.067,325.802L484.639,327.93L485.164,331.208L488.707,331.468L490.154,333.297L488.578,334.982L490.683,338.234L492.475,345.095L490.535,347.176L493.566,350.491L495.906,351.704L497.579,354.814L501.757,357.133L502.345,358.931L504.934,361.357L506.725,361.488L510.382,363.737L512.555,364.278L514.105,361.906L519.811,361.74L523.531,365.333L530.626,369.582L532.918,368.379L535.488,371.366L538.115,370.554L544.563,371.766L546.445,370.932L547.726,373.021L550.294,372.438L552.899,374.87L555.206,375.792L556.742,374.035L559.185,374.398L564.532,376.562L565.132,375.061L567.485,374.978L570.54,372.256L575.67,376.081L579.412,379.932L582.746,379.843L585.065,381.575L585.071,385.129L588.276,389L589.715,388.393L593.586,389.524L597.074,389.678L597.522,386.369L599.213,385.52L603.643,389.476L607.961,389.445L606.189,387.154L608.066,383.24L611.369,383.879L612.367,382.958L611.949,379.271L613.751,378.839L611.998,374.878L616.739,375.81L617.335,374.86L621.144,375.853L625.045,377.892L626.12,380.25L630.249,384.235L630.858,387.497L635.071,391.872L639.985,395.745L639.043,398.022L636.475,396.473L636.692,399.154L640.475,402.477L640.745,404.569L644.051,406.97L643.516,408.265L645.962,413.738L647.18,417.946L649.491,422.082L649.498,426.78L650.87,428.832L653.14,434.45L651.186,435.612L652.603,438.004L651.467,439.41L647.142,439.47L649.024,443.807L647.867,444.958L649.016,448.011L651.698,451.045L651.47,452.996L647.433,455.259L645.973,451.863L643.257,454.51L638.705,450.381L637.416,451.107L635.33,447.882L633.193,447.318L632.754,452.217L631.182,452.956L626.647,450.474L625.427,451.447L621.992,450.461L619.822,448.727L615.714,450.027L615.544,446.94L617.784,443.04L615.514,439.542L612.677,438.43L611.581,440.053L609.006,437.604L610.837,436.104L608.691,432.388L606.851,430.59L605.35,432.058L602.777,432.536L600.495,435.052L599.191,438.362L595.934,437.017L589.948,435.664L585.61,432.677L585.062,434.854L583.174,434.892L580.528,437.486L580.172,439.837L576.527,444.333L569.196,445.556L567.689,449.196L568.661,451.128L565.85,451.683L562.888,453.519L561.386,456.053L562.824,457.388L560.796,460.449L557.282,461.227L555.384,459.76L551.556,462.374L549.767,460.642L546.796,459.84L541.119,455.557L538.312,457.764L532.186,455.533L528.355,456.522L530.101,453.257L519.041,451.69L517.972,454.001L515.165,454.341L512.059,457.864L510.018,464.134L508.125,466.243L508.146,468.133L505.999,468.055L504.725,465.07L505.54,463.216L504.053,456.984L500.455,455.31L497.579,457.564L493.746,457.87L491.038,460.535L485.768,459.6L480.749,460.516L477.456,458.302L473.461,456.851L471.705,455.235L468.078,457.811L464.827,457.415L463.671,458.313L461.06,457.504L459.541,455.099L453.851,451.494L449.296,452.07L447.034,451.138L447.162,445.956L446.015,444.869L442.322,446.862L439.646,446.053L438.733,443.989L435.116,443.791L434.402,441.698L432.091,440.588L429.448,438.106L430.035,435.168L425.478,433.317L421.735,435.921L418.452,433.768L414.302,428.418L406.332,425.176L401.64,420.699L396.839,419.155L395.208,414.86L393.066,414.734L387.145,412.956L383.825,413.313L384.292,417.132L382.153,420.292L378.487,416.058L375.294,415.02L371.281,411.978L365.36,410.25L363.797,406.111L359.786,404.616L356.781,402.533L354.501,403.488L349.655,399.945L346.019,394.683L342.946,397.737L339.439,393.236L340.92,391.475L338.164,388.239L338.551,384.484L332.674,380.005L333.184,376.88L331.066,374.378L334.028,373.452L335.456,371.835L336.85,375.846L340.275,378.255L342.009,376.044L344.67,375.632L347.647,373.446L346.861,370.677L343.304,366.696L343.344,363.066L339.976,362.839L333.44,357.533L331.085,354.42L331.689,352.323L329.302,346.845L332.547,343.745Z" class="land" id="CN-XZ" title="Xizang (Tibet)"/>
    <path d="M653.14,434.45L654.999,442.478L657.054,446.471L657.678,449.643L660.598,453.216L661.721,453.017L660.249,447.443L662.134,446.551L662.69,442.42L668.478,446.525L673.482,453.123L671.598,453.828L672.879,456.432L677.043,459.631L680.867,460.556L681.794,458.697L686.708,464.259L690.727,470.098L692.721,471.625L693.114,474.866L697.054,477.418L697.444,479.451L699.708,481.252L698.821,483.389L703.078,486.272L704.523,489.104L706.51,490.592L711.35,492.239L714.778,488.155L718.296,487.384L720.287,488.48L723.598,487.132L723.966,483.767L721.728,479.025L719.064,474.788L718.139,469.86L721.453,467.639L722.636,463.867L725.108,460.549L724.631,457.717L723.079,454.866L725.249,452.396L726.653,453.445L728.545,451.619L726.352,447.665L728.485,446.18L732.529,445.449L733.984,449.978L737.681,452.632L737.99,454.992L736.296,456.321L741.31,459.982L745.487,458.788L746.289,456.046L749.399,456.004L752.765,462.483L752.96,465.921L748.012,470.035L746.998,468.928L744.174,469.704L739.642,466.844L738.772,469.828L733.332,467.295L732.958,469.744L730.139,473.203L733.055,476.202L732.535,478.843L735.348,483.749L738.39,484.113L739.666,481.795L745.281,482.939L749.094,486.703L747.498,488.956L747.814,491.828L746.904,500.693L748.999,502.95L752.625,505.101L754.732,507.761L755.129,511.753L753.31,514.866L753.445,516.546L753.005,517.992L755.924,522.401L757.954,521.48L760.919,522.416L762.392,521.817L766.148,526.378L770.607,529.424L775.979,529.324L778.03,527.49L779.851,529.31L782.074,533.022L782.258,537.659L780.201,539.108L777.673,538.636L774.136,543.559L774.546,544.538L770.581,540.928L769.502,543.133L767.371,543.142L764.653,545.766L765.138,549.005L763.402,550.763L761.143,550.726L758.455,553.648L756.634,550.961L754.243,551.478L753.41,553.069L753.253,557.008L747.412,551.903L746.144,555.443L742.148,551.364L742.009,553.887L739.652,558.081L737.359,557.422L735.891,555.106L729.784,552.039L727.309,557.152L727.426,558.689L719.973,557.194L718.5,557.644L718.272,561.006L717.091,561.699L719.186,566.758L722.05,569.243L723.106,578.637L723.106,581.64L720.618,579.844L716.59,581.108L714.509,576.878L714.365,574.289L712.475,572.347L712.246,570.28L708.208,572.57L706.358,575.586L703.592,576.042L701.636,574.545L699.152,576.323L694.114,569.439L694.411,566.644L688.693,564.299L685.9,563.707L683.914,564.391L681.1,563.297L683.382,557.137L681.566,552.568L684.554,549.161L683.265,546.528L680.594,545.59L677.124,546.345L676.059,544.916L673.368,544.567L673.153,540.363L670.987,538.2L672,536.825L670.48,534.225L668.439,532.95L667.566,530.614L669.691,528.97L669.945,527.07L666.02,528.165L664.799,527.533L658.862,528.04L655.347,529.702L652.348,532.712L651.548,529.887L652.852,526.801L650.696,521.795L648.552,521.969L647.727,516.421L649.758,514.682L649.208,510.449L650.201,506.853L651.938,507.656L654.192,504.64L654.208,501.667L656.9,501.509L657.814,497.033L660.166,497.106L660.919,495.301L657.976,491.385L659.424,486.559L659.159,482.282L657.64,476.951L655.362,471.487L655.623,469.608L654.177,465.081L650.117,462.829L648.764,465.781L646.241,462.063L645.291,458.828L644.017,457.762L643.257,454.51L645.973,451.863L647.433,455.259L651.47,452.996L651.698,451.045L649.016,448.011L647.867,444.958L649.024,443.807L647.142,439.47L651.467,439.41L652.603,438.004L651.186,435.612Z" class="land" id="CN-YN" title="Yunnan"/>
    <path d="M982.106,470.925L980.437,468.095L978.808,467.472L975.401,468.417L973.843,469.815L970.425,467.497L968.695,464.527L966.338,463.371L963.753,467.655L959.869,466.285L958.44,466.874L957.063,462.333L952.668,456.17L953.54,454.954L951.262,451.514L947.158,451.883L945.327,444.94L941.422,440.391L938.643,439.131L936.655,435.763L937.932,431.828L941.688,429.723L942.114,427.836L944.306,425.651L943.944,423.637L945.453,421.72L944.211,418.864L944.113,414.216L948.553,415.463L949.669,413.198L947.539,410.25L949.767,408.97L950.673,405.585L949.896,400.125L953.808,399.471L955.891,402.175L958.769,403.815L961.893,403.475L965.035,406.889L966.594,403.491L969.42,402.439L970.967,402.63L976.767,408.301L973.395,410.693L973.232,414.065L971.338,415L973.813,417.974L977.467,414.869L979.769,414.823L983.1,417.025L986.975,421.148L988.744,421.408L992.402,424.16L989.567,428.82L986.491,429.114L986.589,431.483L992.322,427.305L994.387,430.701L994.077,433.61L995.064,435.486L991.412,435.903L993.277,439.911L992.193,440.709L992.946,444.386L991.525,445.107L994.489,451.547L992.567,451.194L991.654,453.117L987.675,452.067L986.888,457.475L983.423,464.601L984.149,471.816ZM992.007,420.955L990.43,418.075L992.231,417.959L996.498,420.419Z" class="land" id="CN-ZJ" title="Zhejiang"/>
  </g>
</svg>